<svg id="Layer_1" data-name="Layer 1" xmlns="http://www.w3.org/2000/svg" xmlns:xlink="http://www.w3.org/1999/xlink" viewBox="0 0 802.52 800"><defs><style>.cls-1{fill:#00946c;}.cls-2{opacity:0.42;fill:url(#linear-gradient);}.cls-10,.cls-11,.cls-12,.cls-2,.cls-3{isolation:isolate;}.cls-3{opacity:0.65;}.cls-4{fill:#f04f4f;}.cls-5{fill:#fff;}.cls-6{fill:#edefef;}.cls-7{fill:#b0b3b5;}.cls-8{fill:#080808;}.cls-9{fill:#bfa78f;}.cls-10{opacity:0.25;fill:url(#linear-gradient-2);}.cls-11,.cls-12{opacity:0.4;}.cls-11{fill:url(#linear-gradient-3);}.cls-12{fill:url(#linear-gradient-4);}.cls-13{fill:#52535d;}.cls-14{fill:#697781;}.cls-15{fill:#50515b;}.cls-16{fill:#526474;}.cls-17{fill:#214351;}.cls-18{fill:#5e6471;}.cls-19{fill:#081646;}</style><linearGradient id="linear-gradient" x1="435.37" y1="385.57" x2="187.68" y2="633.24" gradientTransform="translate(0 8)" gradientUnits="userSpaceOnUse"><stop offset="0"/><stop offset="1" stop-opacity="0"/></linearGradient><linearGradient id="linear-gradient-2" x1="541.28" y1="620.21" x2="302.5" y2="620.21" gradientTransform="matrix(1, 0, 0, -1, -17.4, 773.54)" gradientUnits="userSpaceOnUse"><stop offset="0.39" stop-color="#fff"/><stop offset="0.5" stop-color="#fff"/><stop offset="0.75"/></linearGradient><linearGradient id="linear-gradient-3" x1="702.17" y1="344.59" x2="417.13" y2="344.59" gradientTransform="matrix(1, 0, 0, -1, -17.4, 773.54)" gradientUnits="userSpaceOnUse"><stop offset="0.95" stop-color="#fff"/><stop offset="0.96" stop-color="#c5c5c5"/><stop offset="0.96" stop-color="#929292"/><stop offset="0.97" stop-color="#656565"/><stop offset="0.97" stop-color="#404040"/><stop offset="0.98" stop-color="#242424"/><stop offset="0.99" stop-color="#101010"/><stop offset="0.99" stop-color="#040404"/><stop offset="1"/></linearGradient><linearGradient id="linear-gradient-4" x1="135.42" y1="347.46" x2="419.93" y2="347.46" xlink:href="#linear-gradient-3"/></defs><title>AER</title><circle class="cls-1" cx="402.52" cy="400" r="400"/><path class="cls-2" d="M709,614.33,522.7,784.09c-13.92,13.92-183.06,14.06-187.14,10a442.51,442.51,0,0,1-63.06-15c-39-13-122.35-45.18-187.26-127.75C66.18,632.3-1.52,541.78-1.52,356.94L93,241.54c3.06-3.07,18.75,39.41,18.75,39.41l49.77-59.8,47.43,39.45L396.7,40.12Z" transform="translate(1.52)"/><rect class="cls-3" x="370.44" y="280.33" width="70.65" height="338.04"/><path class="cls-4" d="M686.32,248.29c.2-.1.38-.27.57-.27,3.29-.11,6.59-.22,9.86-.29q7-.18,14-.28c2,0,2.28.29,2.27,2.26l-4,352.43v12.19c-2.17.12-4,.29-5.81.33-4.52.13-9,.19-13.56.3-2.82,0-5.73.18-8.59.28l-17.2.58-8.32.28-8.74.28-8.6.28-8.73.29-8.31.28-8.75.28-8.59.3-17.2.56-8.32.28-9,.28-8.31.28-8.74.3-8.31.28-8.75.28-8.45.29-8.89.28-8.31.28-17.48.58-8.31.28-8.75.28-8.31.28-8.74.28-8.59.28-8.75.3c-2.72.09-5.44.21-8.17.27h-7a6,6,0,0,0-2.06.91c-.6.31-1.15.91-1.79,1-2.31.3-4.63.51-6.95.59-6.82.24-13.65.56-20.47.52-4,0-8.07-.69-12.1-1.05-2.08-.2-4.22-.33-6.24-.62-.6-.1-1.08-.81-1.69-1.06a10.2,10.2,0,0,0-2.9-.86c-1.7-.14-3.42,0-5.13,0-2.53-.07-5.07-.17-7.6-.28l-12.93-.56c-3.55-.17-7.05-.38-10.67-.57l-11.52-.58-10.52-.56c-3.89-.2-7.77-.36-11.65-.58-3.46-.17-6.93-.38-10.38-.56l-11.8-.56c-3.37-.19-6.73-.4-10.1-.57-4-.21-8-.36-12.08-.57-3.17-.17-6.36-.4-9.52-.57-4.09-.21-8.16-.36-12.23-.57-3.56-.17-7-.38-10.66-.57L213,615.23c-3.51-.18-7-.4-10.52-.56l-11.67-.58-10.38-.57c-3.93-.19-7.86-.36-11.79-.57-3.42-.17-6.83-.38-10.24-.57l-11.94-.56c-3.23-.17-6.45-.39-9.68-.56-4.07-.21-8.14-.37-12.22-.58-3-.17-6.06-.41-9.1-.56-4.31-.22-8.62-.37-12.93-.58q-5.36-.25-10.66-.57a21.85,21.85,0,0,1-2.82-.38v-9.14l4-355.26c0-2,.5-2.49,2.47-2.42q7,.22,14.09.56c3.35.16,6.72.41,10.08.61L376.87,611.28a12.69,12.69,0,0,1,2.52,1.34,2.69,2.69,0,0,0,.79.3c5.93.41,11.85,1.1,17.78,1.13,6.74,0,13.48-.51,20.22-.81.84-.51,1.72-1,2.62-1.41Z" transform="translate(1.52)"/><path class="cls-5" d="M629.22,473.73l49,118.12a11.42,11.42,0,0,1,6.41,1.53l17.14,8.45.46.31a5,5,0,0,0,.26-1.15c.11-6.42.22-12.83.29-19.26q.16-14.51.28-29c.09-6.94.2-13.89.29-20.82q.17-13,.29-26.07.14-11.82.28-23.66.15-12.67.28-25.49.13-12.13.29-24.23.15-12.68.28-25.35.13-12.33.28-24.65l.3-25.35q.12-12.18.28-24.37c.1-9.21.21-18.42.28-27.63.11-14.75.08-29.5.39-44.24,0-2.33-.69-3-2.52-3.82-5.89-2.82-11.66-5.78-17.48-8.69-1.31-.9-5.21.08-5.21.08Z" transform="translate(1.52)"/><path class="cls-5" d="M143.78,573.61s-28.17,13.2-31.23,14.89c-5.42,2.88-11.09,5.33-16.65,8a4.85,4.85,0,0,1-.32-1.23V581.47c0-8.31.18-16.62.28-24.93s.2-16.72.28-25.09.2-16.42.28-24.65l.3-25.07q.12-12.41.28-24.8T97.28,432q.16-12.4.28-24.79.15-12.68.29-25.23.15-12.17.28-24.36l.29-25.36q.14-12.18.28-24.36.17-12.67.29-25.36.12-11.75.29-23.5c0-1.93.16-3.86.3-5.78a1.31,1.31,0,0,1,.65-.9c5.29-2.53,10.6-5,15.91-7.53,1.21-.58,2.38-1.24,3.58-1.86,3.27-1.33,9.86,5.31,9.86,5.31Z" transform="translate(1.52)"/><path class="cls-6" d="M379.25,538.07s-256.67,47.35-252.55,44.2-14.08,6.23-14.08,6.23-11.08,5.33-16.65,8c2.52.19,5.06.43,7.58.57,5.63.33,11.18.58,16.76.88l10.72.55,16.9.86,10.71.56,17.05.86,10.42.56,17.33.86,10.42.56,17.34.86c3.42.17,6.85.4,10.28.55q7.28.35,14.54.58c4,.13,7.91.21,11.89.28,5.42.12,10.84.19,16.28.3,3.62.07,7.25.18,10.88.28,7.82.18,15.65.35,23.48.58,4.23.12,8.46.38,12.68.55,4.93.19,9.86.35,14.82.59,2.9.13,5.81.31,8.72.58,4.33.42,8.67.8,13,1.4,3.09.46,6.13,1.23,9.17,2a12.05,12.05,0,0,1,2.54,1.33,5.6,5.6,0,0,1,1.93-1A42.69,42.69,0,0,1,386,611c3.5-.21,7.05-.34,10.46-.48a12.37,12.37,0,0,1,1.49.18Z" transform="translate(1.52)"/><path class="cls-6" d="M678.24,589.85s4.38,2.49,6.41,3.52l17.14,8.45a4.63,4.63,0,0,1,.46.31c-4.39.11-8.77.2-13.17.32l-17.52.58-8,.28-17.81.57-8.05.28-17.53.58-8.19.28-17.67.56-7.76.28-18.1.58c-2.81.08-5.74.17-8.62.28-3.8.17-7.6.52-11.42.54H486.67c-4.44,0-8.87.17-13.31.26-3.72.09-7.45.17-11.17.3-4.94.15-9.86.32-14.83.58-4.31.21-8.65.32-12.93.9-4.58.6-9.28.66-13.63,2.48a25.35,25.35,0,0,0-2.62,1.41c1-.65.69-1.17-.24-1.41a36.09,36.09,0,0,0-4.62-.62c-4.1-.24-8.2-.41-12.31-.57-.62,0-1-.15-1-.84h0l9.59-29.61,244.12-3.48Z" transform="translate(1.52)"/><path class="cls-7" d="M415.68,258.6c3.62-.86,7.2-1.91,10.86-2.55,4.13-.72,8.31-1.13,12.5-1.58q4.48-.47,9-.69c8.88-.49,17.75-.93,26.62-1.4,2.41-.12,4.82-.23,7.24-.29,8.37-.19,16.74-.46,25.1-.53,16.71-.14,33.43-.1,50.12-.24,11.36-.1,22.72-.37,34.07-.58q10-.19,20.14-.44c10-.26,19.94-.57,29.93-.87l17-.53,25-.78h1.65c0,.56.07,1,.07,1.41l-4.31,341.8a7.33,7.33,0,0,1-1.14.19l-21,.6-27.08.83c-8.93.26-17.88.55-26.76.78-7.05.19-14.09.4-21.13.47-23.8.22-47.61.35-71.4.58-7.71,0-15.42.29-23.12.49-5.64.14-11.17.28-16.75.49-8.21.33-16.44.61-24.65,1.12a244.7,244.7,0,0,0-26.87,2.81c-3,.54-6,1.3-9,2a7.86,7.86,0,0,1-.32-1.59c.08-6.56.21-13.13.31-19.72Z" transform="translate(1.52)"/><path class="cls-7" d="M415.4,258.84l-3.46,1h0l-2.3,1h0l-.84.57h0L408,262h0l-.84.56h0l-.85.57h0l-.3.56h0l-.84.86h0l-.28.28h0l-.3.57h0l-.56.56h0a15.58,15.58,0,0,0-.25,1.8c-.12,4.68-.23,9.35-.29,14.09L400,598.5v.84c0,3.39-.16,6.79-.21,10.2,0,.14.18.29.28.45h0l.53-.55h0l.27-.25h0l.28-.54h0l.24-.25h0l.55-.55h0l.27-.52h0l.83-.55h0l1-.85h0l.81-.55h0l1.12-.55h0a3.25,3.25,0,0,1,.74-.64c1.75-.74,3.51-1.41,5.27-2.15l29-27.71Z" transform="translate(1.52)"/><path class="cls-7" d="M398.37,603.45c0,1.79-.14,3.58-.26,5.37,0,.18-.38.32-.58.48h0l-.82-.85h0l-.28-.53h0l-.24-.27h0l-.55-.55h0l-.55-.53h0l-.94-.64h0l-.82-.55h0l-.53-.28h0a5.4,5.4,0,0,0-.93-.79,60.84,60.84,0,0,0-15.77-4.81c-4.08-.74-8.19-1.3-12.31-1.81-3.56-.43-7.14-.76-10.71-1q-9.33-.74-18.65-1.41-8.26-.53-16.55-.91-11.26-.58-22.54-1.09c-2.32-.1-4.63-.21-6.94-.27l-18.17-.38c-10.21-.19-20.44-.29-30.65-.59-9.39-.27-18.8-.74-28.17-1.12-6.84-.29-13.7-.53-20.55-.85-8.11-.41-16.22-.9-24.34-1.32-4.63-.24-9.25-.43-13.88-.67-6.43-.32-12.84-.7-19.26-1-4.8-.26-9.62-.5-14.45-.64-1.2,0-1.49-.39-1.41-1.56l3.82-340.94a6.26,6.26,0,0,1,.08-1.18l17.89,1c2.49.14,5,.24,7.49.38,5,.26,10,.59,14.95.86,2.27.12,4.52.15,6.79.26,3.19.17,6.39.4,9.59.58,2,.13,4,.23,6.07.31,5.38.2,10.75.32,16.13.56s10.93.61,16.39.85c3.54.15,7,.15,10.61.28,4.86.17,9.72.38,14.57.56,2.3.1,4.61.23,6.91.26,7.6.12,15.21.2,22.81.32,3.54,0,7.05.19,10.6.28s7,.16,10.46.29c4.23.16,8.55.36,12.82.56,4,.18,8.08.34,12.11.58s8.45.57,12.68.83c2.25.14,4.52.14,6.76.28,3.93.25,7.86.58,11.79.86,3,.21,6.08.34,9.12.59,3.65.31,7.29.63,10.92,1.13,4.63.63,9.28,1.41,13.89,2.21a49.47,49.47,0,0,1,12.38,3.93,7,7,0,0,0,1.21.35h0l.84.56h0l.55.3h0l.28.28h0l.57.28h0l.29.27h0l.55.3h0l.57.56h0l.29.55h0l.28.28h0l.57.56h0l.29.57h0l.27.28h0l.27.29h0c.08,4.1.27,8.2.25,12.3Z" transform="translate(1.52)"/><path class="cls-8" d="M408.09,39.89a3.73,3.73,0,0,0-3.8-2.17,27.23,27.23,0,0,1-3.38,0,4.37,4.37,0,0,0-4.42,2.58L283,236.23l239.68,1.64" transform="translate(1.52)"/><path class="cls-9" d="M474.43,154.39l51,85.91L403.11,261.8,280.75,239.94,330,155.43a4.77,4.77,0,0,1,.62-1" transform="translate(1.52)"/><path class="cls-8" d="M523.88,237.8" transform="translate(1.52)"/><path class="cls-10" d="M408.4,39.72a3.71,3.71,0,0,0-3.83-2.18,32,32,0,0,1-3.39,0,4.46,4.46,0,0,0-4.48,2.58L285.1,232.68l118,36.47,120.77-31.39" transform="translate(1.52)"/><path class="cls-11" d="M415.27,258.71l-3.45,1.05h0l-2.25.85h0l-.84.57h0l-.85.56h0l-.84.56h0l-.86.58h0l-.3.57h0l-.83.85h0l-.28.3h0l-.28.56h0l-.57.58h0a15.41,15.41,0,0,0-.25,1.79l-3.94,341.74c0,.16.18.3.28.45h0l.55-.55h0l.26-.27h0l.27-.53h0l.25-.25h0l.54-.55h0l.27-.54h0l.81-.55h0l.82-.55h0l.83-.55h0l1.12-.56h0c.25-.21.46-.52.76-.63l4.87-2.33c3-.65,6-1.41,9-1.94a245,245,0,0,1,26.89-2.75c8.21-.52,16.44-.79,24.65-1.11,5.63-.23,11.15-.37,16.73-.51,7.72-.18,15.42-.41,23.13-.49,23.8-.21,47.6-.35,71.41-.58,7,0,14.08-.28,21.12-.46q13.4-.36,26.77-.78l27.08-.84,21-.58a10.66,10.66,0,0,0,1.14-.2l4.53-342v-1.41h-1.66l-24.94.77-17,.52q-15,.45-29.92.88-10.07.27-20.14.45c-11.35.21-22.72.48-34.07.56-16.7.14-33.41.11-50.11.24-8.37.07-16.74.35-25.12.55-2.41,0-4.81.15-7.22.28q-13.32.66-26.62,1.41c-3,.17-6,.38-9,.7-4.23.45-8.37.85-12.49,1.57-3.67.65-7.24,1.69-10.86,2.56" transform="translate(1.52)"/><path class="cls-12" d="M398.5,608.83c0,.19-.38.33-.59.5h0l-.83-.83h0l-.27-.54h0l-.25-.25h0l-.54-.55h0l-.55-.55h0l-.82-.54h0l-.83-.55h0l-.53-.26h0a4.33,4.33,0,0,0-.92-.79,60.48,60.48,0,0,0-15.77-4.82c-4.07-.73-8.2-1.28-12.31-1.8-3.55-.44-7.13-.76-10.71-1q-9.31-.75-18.65-1.41c-5.52-.37-11-.65-16.56-.93q-11.26-.57-22.53-1.07c-2.31-.12-4.62-.23-6.95-.29q-9.08-.21-18.15-.38c-10.23-.19-20.44-.29-30.65-.59-9.41-.26-18.81-.73-28.17-1.12-6.86-.27-13.71-.51-20.55-.85-8.13-.39-16.24-.89-24.35-1.32-4.62-.24-9.26-.43-13.88-.65-6.42-.34-12.83-.72-19.25-1-4.82-.26-9.64-.5-14.45-.64-1.2,0-1.5-.39-1.41-1.55l3.8-341a5.08,5.08,0,0,1,.1-1.18l17.87,1c2.51.13,5,.23,7.5.37,5,.28,10,.59,15,.86,2.25.12,4.52.15,6.77.26l9.59.58c2,.13,4.06.24,6.09.31,5.36.2,10.74.33,16.11.57s10.93.6,16.39.84c3.54.16,7,.17,10.62.28,4.86.17,9.72.38,14.58.57,2.3.09,4.59.22,6.9.25,7.61.13,15.21.2,22.81.32,3.53,0,7,.19,10.6.28s7,.16,10.45.29c4.23.17,8.55.38,12.83.56,4.05.18,8.08.35,12.12.58s8.45.57,12.67.83c2.26.14,4.51.14,6.76.28,3.93.25,7.86.59,11.79.86,3,.21,6.09.34,9.12.59,3.64.31,7.29.63,10.91,1.13,4.65.63,9.28,1.41,13.89,2.21a49.47,49.47,0,0,1,12.38,3.93,7.5,7.5,0,0,0,1.23.35h0l.84.56h0l.56.29h0l.29.28h0l.56.28h0l.28.27h0l.56.29h0l.58.57h0l.3.54h0l.27.29h0l.54.56h0l.29.55h0l.28.28h0l.31.25Z" transform="translate(1.52)"/><path class="cls-13" d="M571.24,309.28h-22c-14.09,0-28.06-.19-42.09-.23-4.29,0-8.59.13-12.88.26-3.76.11-7.51.29-11.27.47q-6.56.35-13.07.75c-3.58.23-7.16.4-10.72.76s-6.83.93-10.24,1.41c-3.13.44-6.27.85-9.39,1.3-5,.7-10,1.4-14.57,3.63a32,32,0,0,0-6.22,4.23c-2.3,1.9-4.37,4.07-6.51,6.15a41.27,41.27,0,0,0-9,12.68c-.25.55-.94.91-1.51,1.41-.76-1.41-1.4-2.71-2.15-3.89-1.94-2.82-4-5.64-6-8.45a23.39,23.39,0,0,0-2.17-2.28l-4.67-4.65c-1.41-1.23-2.82-2.48-4.34-3.68-3.94-3.22-8.71-4.35-13.56-5.17-5.64-.94-11.27-1.87-16.91-2.66-3.09-.42-6.24-.54-9.35-.79l-11.67-1c-1.22-.1-2.44-.2-3.65-.25-3.83-.17-7.66-.36-11.5-.5-3.19-.11-6.38-.17-9.56-.25s-6.06-.23-9.08-.24l-63-.27L201,307.81l11.41-53.69,392,3.42-24.07,51.67" transform="translate(1.52)"/><path class="cls-14" d="M161,261.5h0c.16,10.11-.39,20.23.45,30.33.26,3.1.2,6.21.28,9.32q0,.62,0,1.23c.38,3.09.77,6.19,1.19,9.28.49,3.66.79,7.36,1.57,11a141.78,141.78,0,0,0,5.64,20.73A134.84,134.84,0,0,0,177,359.21a131.32,131.32,0,0,0,9.42,15.49q3.56,4.79,7.24,9.48c1.61,2,3.29,4,5,6,1.09,1.24,2.27,2.36,3.41,3.55h0l5.78,8.86L260.34,370,170.66,241.6Z" transform="translate(1.52)"/><path class="cls-15" d="M372.72,409.13v35.66l-10.78-1c-4.34-.41-8.67-.83-13-1.21-1.62-.14-3.25-.19-4.89-.27l-5.63-.24L320,441.32l-5.64-.24c-3.71-.17-7.42-.28-11.12-.5A43.44,43.44,0,0,0,291,441.91c-5.43,1.24-10.86,2.65-16.15,4.37a78.39,78.39,0,0,0-18.6,9,92.39,92.39,0,0,0-11.47,9A103.11,103.11,0,0,0,232.51,478l-.08.1c-.85,1.26-1.41,3.05-2.62,3.69L225.33,488l-24.82-3.8L260,378.32l111.41,23Z" transform="translate(1.52)"/><path class="cls-16" d="M169.9,518.35,379.05,508l20.73,33.43-.67,37.17c-1.86-2.75-4.77-3.37-7.77-3.75-2.16-.28-4.33-.65-6.52-.73-4.74-.17-9.52-.09-14.26-.29-2.75-.12-5.48-.63-8.23-.91-1.62-.16-3.25-.16-4.89-.28l-12.15-1c-1.66-.13-3.34-.2-5-.25-2.52-.1-5-.16-7.59-.27q-8.62-.35-17.25-.73c-1.66,0-3.34-.19-5-.24l-15.33-.5c-2.49-.08-5-.19-7.48-.24-5.63-.09-11.26-.19-16.83-.25-9.86-.1-19.59-.13-29.39-.27-5.48,0-11-.31-16.43-.48l-7.84-.24-15.94-.49-8-.25c-4.32-.16-8.64-.31-13-.49-3.91-.16-7.83-.31-11.75-.5-2.11-.1-4.22-.24-6.4-.36V530.55Z" transform="translate(1.52)"/><path class="cls-17" d="M230.47,445.37c-1,1.53-2,3.05-2.93,4.63a63.9,63.9,0,0,0-7.85,22.62c-.46,3.1-.49,6.27-.73,9.56,1.09.09,1.93.19,2.82.21q8,.17,16,.26c8.94.12,17.89.21,26.76.35,8.21.13,16.41.28,24.62.51q11.18.27,22.38.73c7.9.32,15.8.76,23.7,1.15,5.54.27,11.06.46,16.58.82,5.24.35,10.45.94,15.68,1.31a13.07,13.07,0,0,0,3.73-.51c5.44-1.19,10.85-2.5,16.3-3.63a23.62,23.62,0,0,1,9.76-.39,8.18,8.18,0,0,1,2.56,1.09,1.83,1.83,0,0,1,.71,1.41c0,4.61-.13,9.2-.17,13.79-.12,9.61-.17,19.21-.27,28.81,0,4.31-.16,8.62-.24,12.93v.76l-1.24-.48h0a6.93,6.93,0,0,0-4.49-1.93c-3.31-.5-6.66-.85-10-1.07-7-.47-14.16-.76-21.24-1.19-6.34-.39-12.68-.9-19-1.26-6.72-.4-13.44-.71-20.14-1q-12.79-.52-25.58-1-9.29-.33-18.58-.49-14.44-.27-28.92-.5c-9.76-.16-19.53-.29-29.29-.5q-13.6-.3-27.19-.74c-8.24-.28-16.48-.64-24.72-1-1.91-.07-3.84-.23-5.77-.21-1.17,0-1.55-.38-1.55-1.57V473.1a78.15,78.15,0,0,1,3.8-22.54,135.72,135.72,0,0,1,22.14-41.31,111.4,111.4,0,0,1,13.29-14.59,6.44,6.44,0,0,0,.67-1h0l.23-.23h0l.29-.21h0l.47-.24h0l.73-.72h0l.23-.22h0l.46-.24h0l.73-.72h0l.47-.24h0l.72-.72h0l.46-.24h0l.72-.72h0L208,389h0l.48-.47h0l.72-.46h0l1.95-1.22h0l.47-.47h0l.72-.48h0l4.9-2.95h0l4.89-2.33,3.11-1.41-1.26-.89h0l-.48-.23h0l-.23-.22h0l-.72-.72h0l-.47-.24h0l-.74-.72h0l-.22-.22h0l-.47-.24h0L220,375h0l-.46-.24h0l-.23-.22h0l-.73-.72h0l-.47-.24h0l-.73-.72h0l-.22-.22h0l-.47-.24h0l-.24-.24h0l-1.21-1.21h0l-.23-.23h0l-.22-.22h0l-.48-.24h0L214,370h0l-.22-.22h0l-1.23-1.22h0l-.22-.22h0l-.24-.24h0l-.47-.24h0l-.22-.22h0l-.23-.23h0l-1-1h0l-.23-.24h0l-.24-.22h0l-.46-.24h0l-.24-.48h0l-.24-.23h0l-.23-.22h0l-.24-.23h0l-.22-.22h0l-.23-.23h0l-.22-.22h0l-.23-.23h0l-.22-.22h0l-.23-.23h0l-.22-.22h0l-.23-.23h0l-.23-.23h0l-.22-.22h0l-.23-.23h0l-.22-.22h0l-.23-.23h0l-.22-.22h0l-.23-.23h0l-.22-.22h0l-.23-.23h0l-.22-.22h0l-.23-.23h0l-.22-.22h0l-.23-.23h0l-.23-.23h0l-.22-.22h0l-.23-.23h0l-.22-.22h0l-.72-.64L195.55,351h0l-.22-.16-.61-.67h0l-.24-.47h0l-.72-.73h0l-.24-.47h0l-.79-.74h0l-.23-.47h0l-.47-.48h0l-.23-.22h0l-.71-1h0l-.24-.46h0l-.71-.72h0l-.24-.47h0l-.71-.73h0l-.72-1h0l-.74-1.21h0l-.46-.48h0l-.72-1.2h0l-.48-.46h0l-.48-.72h0l-.74-1.3h0l-1.71-2.45h0l-.48-.7h0l-.49-1h0c-.84-1.54-1.66-3.09-2.55-4.59a117,117,0,0,1-9.86-21.57,125,125,0,0,1-5.53-21.88c-.93-6.2-1.72-12.41-2.43-18.64-.35-3.25-.45-6.55-.53-9.86-.14-5.53-.23-11.08-.23-16.62,0-3,.24-6,.33-8.93.08-3.18.14-6.36.14-9.56,0-1.14.35-1.62,1.58-1.52,4.08.29,8.17.52,12.24.74,2.25.13,4.5.15,6.74.26,2.58.12,5.14.32,7.72.48,1.76.11,3.51.19,5.27.26,2.53.1,5.07.16,7.6.24l19.3.64,9.35.31,6.76.21,12.79.31c9.86.25,19.72.48,29.67.77,6.39.19,12.77.47,19.16.72,5.95.24,11.89.44,17.84.75,8.59.45,17.18.93,25.77,1.49,7.56.49,15.13,1,22.66,1.76,5.82.62,11.6,1.64,17.34,2.69a15,15,0,0,1,4.4,2.11,59.21,59.21,0,0,1,11.95,9,25.82,25.82,0,0,1,2.2,2.48,5.83,5.83,0,0,1,1.41,4.23c-.25,3-.11,6.07-.14,9.11l-.25,31.27c0,4.88-.14,9.76-.26,14.64,0,.36-.34.71-.52,1.05h0l-.22-.23h0l-.23-.22h0l-.48-.72h0l-.7-1h0l-.47-.72h0l-.49-.94h0l-.47-.48h0l-.22-.45h0l-.48-.48h0l-.72-1.21h0l-.72-1h0l-.22-.23h0l-.71-.72h0l-.23-.46h0l-.72-1h0l-.21-.23h0l-.71-.73h0l-.22-.22h0l-.24-.47h0l-.23-.22h0l-.21-.23h0l-.72-.72h0l-.22-.22h0l-.23-.23h0l-.24-.46h0l-.22-.23h0l-1-1h0l-.23-.22h0l-.22-.23h0l-.23-.23h0l-.24-.22h0l-.46-.47h0l-.23-.22h0l-.24-.23h0l-.22-.22h0l-.24-.23h0l-1.41-1.41h0l-.23-.22h0l-.22-.23h0l-.23-.22h0l-.46-.24h0l-.48-.47h0l-.46-.24h0l-1-.71h0l-.73-.72h0l-.72-.48h0l-.45-.24h0a20.48,20.48,0,0,0-4.32-2.39,94.22,94.22,0,0,0-11.13-2.51c-6.44-1-12.9-1.71-19.38-2.42-3.49-.4-7-.6-10.54-.82-6.57-.41-13.16-.82-19.71-1.14-5.41-.26-10.82-.5-16.24-.52-23.64-.16-47.29-.23-70.92-.34-3,0-6-.16-9-.23h-1.41c.15.58.24,1.05.37,1.48,2.21,7.65,4.31,15.31,6.65,22.9A56.14,56.14,0,0,0,237,316.56a93.2,93.2,0,0,0,7.17,8.08,90.77,90.77,0,0,0,15.59,12.3A103.94,103.94,0,0,0,294,349.59c6.75,1.27,13.58,2.18,20.41,3s14.09,1.41,21,1.93c5.46.45,11,.59,16.43,1.1,6.55.6,13.1,1.41,19.65,2.2,1.06.12,1,.81,1,1.59v49.17c-1.06-.1-2-.2-2.89-.27-7.35-.56-14.69-1.24-22.06-1.68-8.83-.53-17.69-.86-26.53-1.26-4.79-.23-9.6-.31-14.37-.72-7.14-.59-14.09.72-20.9,2.31a100.62,100.62,0,0,0-25.61,9.56,18,18,0,0,0-1.66,1.2h0l-2,1.21h0l-1,.72h0l-1.69,1h0l-.48.48h0l-.46.24h0l-2,1.41h0l-.73.72h0l-1,.71h0l-1.41,1.23h0l-.22.22h0l-.47.24h0l-.22.23h0l-.23.22h0l-1.21,1.22h0l-.22.22h0l-.47.24h0l-.22.23h0l-.24.22h0l-.48.48h0l-.23.24h0l-.24.23h0l-.22.23h0l-.24.23h0l-.23.24h0l-.24.46h0l-.22.23h0l-.23.22h0l-.22.23h0l-.23.23h0l-.22.22h0l-1.69,1.71h0l-.23.22h0l-.22.24h0l-.24.46h0l-.72.74h0l-.24.46h0l-.72.72h0l-.24.47h0l-.72.73h0l-.24.46h0l-.22.23h0l-.72.73h0l-.24.46h0l-.46.72h0l-.47.48h0l-1.72,2.69h0l-.48.71h0l-.46.48Z" transform="translate(1.52)"/><path class="cls-14" d="M641.46,228s.92,14.17.82,14.08v20.62q-.09,7.74-.24,15.49c0,3.16-.13,6.31-.25,9.46-.21,5.21-.41,10.43-.76,15.64-.29,4.23-.68,8.45-1.24,12.68-.82,6.1-1.79,12.17-3.17,18.2a133.31,133.31,0,0,1-6.52,19.86,74.68,74.68,0,0,1-5.75,11c-3.38,5.45-7,10.76-10.66,16-2,2.82-4.23,5.24-6.41,7.84-1.17,1.4-2.33,2.81-3.52,4.22a9,9,0,0,1-1.31,1h0l-5.89,4.79-50.14-37.74Z" transform="translate(1.52)"/><path class="cls-18" d="M431.77,408.83v35.94c1-.17,1.91-.38,2.81-.46q7-.66,14-1.24c3.62-.3,7.23-.54,10.85-.75q7.26-.39,14.53-.74c3.47-.17,6.93-.34,10.4-.48,4.56-.19,9.14-.4,13.72-.48,2.65,0,5.31.07,8,.24a74.17,74.17,0,0,1,13.09,1.89,86.2,86.2,0,0,1,36.16,18,106.38,106.38,0,0,1,10.93,10.3,50.58,50.58,0,0,1,3.84,4.43c3.47,5,7.05,10,9.36,15.67.87,2.14,2,4.22,2.72,6.39,1,3.3,2.81,9.13,2.81,8.69l3.73,24.11,14.24-109.48L469.19,378.32,432,406.24Z" transform="translate(1.52)"/><rect class="cls-16" x="586.85" y="531.83" width="58.49" height="34.62"/><path class="cls-17" d="M643.79,533.3,587,532.52c-1.59,0-1.6,0-1.6-1.59,0-16.82-.07-33.65,0-50.47a55.63,55.63,0,0,0-2.16-15,77.9,77.9,0,0,0-7-16.9,7.23,7.23,0,0,0-1.13-1.34h0l-1.21-1.94h0l-.48-1h0l-.71-1h0l-.48-.71h0l-.24-.46h0l-.47-.48h0l-.22-.47h0l-.72-.73h0l-.73-1.21h0l-.72-.73h0l-.24-.47h0l-.48-.48h0l-.48-.71h0l-.82-.65-1.76-2.17h0l-.22-.16-.61-.67h0l-.22-.23h0l-.23-.22h0l-.24-.47h0l-.24-.24h0l-.22-.22h0l-.24-.24h0l-.23-.23h0l-.46-.24h0l-.23-.22h0l-.22-.23h0l-.23-.22h0l-.22-.23h0L560,428.84h0l-.23-.22h0l-.22-.23h0l-.23-.22h0l-.46-.24h0l-.24-.23h0l-.23-.22h0l-.73-.72h0l-.46-.24h0l-.72-.72h0l-.48-.24h0l-.73-.72h0l-.47-.22h0l-1-.72h0l-.71-.72h0l-.47-.24h0l-.72-.48h0l-.48-.46h0l-1-.49h0l-.71-.48h0l-.72-.48h0l-.72-.48h0l-.71-.48h0l-2.93-1.7h0a7.6,7.6,0,0,0-1-.84,87.68,87.68,0,0,0-27.11-10.54,96.81,96.81,0,0,0-22.54-1.6c-8.08.23-16.17.31-24.24.58-6.72.23-13.45.48-20.16,1-5.5.41-11,1.2-16.47,1.85-.95.1-1.53.08-1.53-1.17,0-16.06-.08-32.1-.12-48.16a6.76,6.76,0,0,1,.07-1.11c2.56-.35,5.08-.82,7.65-1,8.81-.7,17.64-1.41,26.48-1.93,3.59-.24,7.21-.22,10.81-.29,6-.12,12.07-.3,18.1-.28a85.86,85.86,0,0,0,28.8-5A94.31,94.31,0,0,0,572,310.57a77.16,77.16,0,0,0,10.48-26.63c.64-3.56.9-7.21,1.4-11h-5.83c-2.34,0-4.67.12-7,.12l-73.65.37q-11.82,0-23.62.46a227,227,0,0,0-28.27,2.43c-5,.8-10,1.8-14.91,3a41.23,41.23,0,0,0-6.83,3c-.19.08-.29.35-.41.53h0l-1.21.72h0l-1.22.73h0l-.73.72h0l-.46.24h0l-.72.72h0l-.24.24h0l-.47.24h0l-.71.72h0l-.24.22h0l-.47.24h0l-.22.23h0l-.48.46h0l-.24.24h0l-.48.47h0l-.41.49c-.32.41-.62.84-1,1.24-1.69,1.82-3.41,3.6-5.13,5.42l-.35.23h0l-.23.22h0l-.24.47h0l-.72.72h0l-.73,1.19h0l-.72,1h0l-.7,1h0l-.72,1.21h0l-1,1.17-1.05-.24L395,284.45l8.24-34.68a8.58,8.58,0,0,1,3.38-6.62c4.89-3.65,9.86-7.14,14.93-10.59,2.41-1.65,5.35-1.82,8.12-2.23,7.24-1.08,14.5-2.18,21.8-2.81,8.9-.71,17.84-1,26.76-1.29,9.46-.33,18.94-.53,28.42-.77l18.45-.48c6.4-.17,12.81-.32,19.2-.51l24.48-.73,23.86-.73c6.48-.21,13-.42,19.42-.68q13.61-.51,27.17-1.07a16.72,16.72,0,0,0,2.45-.17c.84-.08,1.06.3,1.05,1.07,0,2.51,0,5-.09,7.52-.22,9.86-.28,19.72-.8,29.58-.44,8.38-1.14,16.78-2.23,25.09a123.46,123.46,0,0,1-8.83,32.55,5.45,5.45,0,0,0-.22,1.05h0c-.48,1.07-1,2.13-1.41,3.19h0c-.75,1.41-1.48,2.94-2.21,4.41h0l-2.2,3.93h0l-1,1.69h0l-.73,1.21h0l-.48.72h0l-.48.71h0l-.48.72h0l-.48.71h0l-.48.71h0l-.48.71h0l-.48.72h0l-.46.72h0l-.47.71h0l-.47.72h0l-.72,1h0l-.72.72h0l-.72,1h0l-.24.47h0l-.46.48h0l-.24.48h0l-.47.48h0l-.24.48h0l-.73,1h0l-.72,1h0l-.72.73h0l-1,1.21h0l-.24.47h0l-.24.22h0l-.72.74h0l-.22.22h0l-.24.47h0l-.23.22h0l-.71.72h0l-.24.48h0l-.23.22h0l-.72.72h0l-.24.23h0l-.24.46h0l-.22.23h0l-.72.73h0l-.24.47h0l-.23.22h0l-.7.73h0l-.22.23h0l-.2.55-.19.18-.35.24h0l-.77.77-2.33,2.61h0l-.19.21-.89.85h0l-.23.22h0l-.22.23h0l-.23.22h0l-.24.48h0l-.24.23h0l-.22.22h0l-.23.23h0L597,364.66h0l-.22.24h0l-.24.22h0l-.23.24h0l-.24.47h0l-.22.22h0l-.23.23h0l-.22.22h0l-1.2,1.22h0l-.23.22h0l-.22.24h0l-.21.55-.21.21-.31.2h0l-.23.24h0l-1.21,1.21h0l-.24.24h0l-1,1h0l-.22.23h0l-.23.22h0l-.22.23h0l-.23.22h0l-.22.23h0l-.23.22h0l-.24.47h0l-.48.46h0l-.22.23h0l-.23.22h0l-.22.23h0l-.23.22h0l-.22.23h0l-.23.22h0a17.16,17.16,0,0,0-1.54,1.41c-.08.1.2.54.31.82h0l.47.24h0l.72.72h0l.46.24h0l1.21,1h0l.24.22h0l.74.72h0l.46.24h0l.73.72h0l.47.24h0l.72.72h0l.22.22h0l1,.72h0l.47.24h0l1,.72h0l.71.72h0l.48.22h0l.74.72h0l.46.24h0l.48.47h0l.46.24h0l.72.71h0l.47.24h0l.73.72h0l.46.24h0l.24.23h0l1,1h0l.22.23h0l.47.24h0l.22.24h0l.72.72h0l.22.22h0c1.17,1.2,2.36,2.37,3.51,3.58A166.41,166.41,0,0,1,621.35,414a155.34,155.34,0,0,1,11.27,18.31,98.36,98.36,0,0,1,9.7,28c1.23,6.83,2.07,13.75,2.89,20.66.51,4.34.83,8.74.91,13.12Z" transform="translate(1.52)"/><path class="cls-19" d="M600.64,392.53" transform="translate(1.52)"/></svg>